<?xml version="1.0" standalone="no"?>
<!DOCTYPE svg PUBLIC "-//W3C//DTD SVG 20010904//EN"
 "http://www.w3.org/TR/2001/REC-SVG-20010904/DTD/svg10.dtd">
<svg version="1.0" xmlns="http://www.w3.org/2000/svg"
 width="1009.000000pt" height="1130.000000pt" viewBox="0 0 1009.000000 1130.000000"
 preserveAspectRatio="xMidYMid meet">

<g transform="translate(0.000000,1130.000000) scale(0.100000,-0.100000)"
fill="#000000" stroke="none">
<path d="M2740 11238 c-5 -13 -588 -2523 -1295 -5578 -708 -3055 -1289 -5563
-1291 -5572 -5 -17 54 -18 1144 -18 l1150 0 11 47 c5 27 589 2532 1296 5568
707 3036 1289 5532 1292 5548 l6 27 -1152 0 -1151 0 -10 -22z"/>
<path d="M7730 11238 c-5 -13 -588 -2523 -1295 -5578 -708 -3055 -1289 -5563
-1291 -5572 -5 -17 54 -18 1144 -18 l1150 0 11 47 c5 27 589 2532 1296 5568
707 3036 1289 5532 1292 5548 l6 27 -1152 0 -1151 0 -10 -22z"/>
</g>
</svg>
